REM DIRINDEX 1\2,1\3,1\4,1\5,1\6
REM DIRNAME folder01,folder02,folder03,folder04,folder05,folder06
TITLE ""
FILE "Disc5Track17.mp3" MP3
  TRACK 01 AUDIO
    TITLE "3:cjc030_08714"
    INDEX 01 00:00:00
  TRACK 02 AUDIO
    TITLE "0:"
    INDEX 01 00:00:74
  TRACK 03 AUDIO
    TITLE "4:cjc030_08715"
    INDEX 01 00:01:07
  TRACK 04 AUDIO
    TITLE "0:"
    INDEX 01 00:02:14
  TRACK 05 AUDIO
    TITLE "5:cjc030_08716"
    INDEX 01 00:02:24
  TRACK 06 AUDIO
    TITLE "0:"
    INDEX 01 00:03:21
  TRACK 07 AUDIO
    TITLE "6:cjc030_08717"
    INDEX 01 00:03:37
  TRACK 08 AUDIO
    TITLE "0:"
    INDEX 01 00:05:36
  TRACK 09 AUDIO
    TITLE "3:cjc030_08718"
    INDEX 01 00:06:12
  TRACK 10 AUDIO
    TITLE "0:"
    INDEX 01 00:07:23
  TRACK 11 AUDIO
    TITLE "4:cjc030_08719"
    INDEX 01 00:07:31
  TRACK 12 AUDIO
    TITLE "0:"
    INDEX 01 00:08:36
  TRACK 13 AUDIO
    TITLE "5:cjc030_08720"
    INDEX 01 00:08:42
  TRACK 14 AUDIO
    TITLE "0:"
    INDEX 01 00:09:55
  TRACK 15 AUDIO
    TITLE "6:cjc030_08721"
    INDEX 01 00:09:69
  TRACK 16 AUDIO
    TITLE "0:"
    INDEX 01 00:13:69
  TRACK 17 AUDIO
    TITLE "3:cjc030_08722"
    INDEX 01 00:14:45
  TRACK 18 AUDIO
    TITLE "0:"
    INDEX 01 00:15:58
  TRACK 19 AUDIO
    TITLE "4:cjc030_08723"
    INDEX 01 00:15:66
  TRACK 20 AUDIO
    TITLE "0:"
    INDEX 01 00:17:65
  TRACK 21 AUDIO
    TITLE "5:cjc030_08724"
    INDEX 01 00:17:72
  TRACK 22 AUDIO
    TITLE "0:"
    INDEX 01 00:19:09
  TRACK 23 AUDIO
    TITLE "6:cjc030_08725"
    INDEX 01 00:19:24
  TRACK 24 AUDIO
    TITLE "0:"
    INDEX 01 00:21:15
  TRACK 25 AUDIO
    TITLE "3:cjc030_08726"
    INDEX 01 00:21:66
  TRACK 26 AUDIO
    TITLE "0:"
    INDEX 01 00:23:18
  TRACK 27 AUDIO
    TITLE "4:cjc030_08727"
    INDEX 01 00:23:24
  TRACK 28 AUDIO
    TITLE "0:"
    INDEX 01 00:24:06
  TRACK 29 AUDIO
    TITLE "5:cjc030_08728"
    INDEX 01 00:24:12
  TRACK 30 AUDIO
    TITLE "0:"
    INDEX 01 00:25:39
  TRACK 31 AUDIO
    TITLE "3:cjc030_08729"
    INDEX 01 00:26:17
  TRACK 32 AUDIO
    TITLE "0:"
    INDEX 01 00:27:12
  TRACK 33 AUDIO
    TITLE "4:cjc030_08730"
    INDEX 01 00:27:22
  TRACK 34 AUDIO
    TITLE "0:"
    INDEX 01 00:28:19
  TRACK 35 AUDIO
    TITLE "5:cjc030_08731"
    INDEX 01 00:28:27
  TRACK 36 AUDIO
    TITLE "0:"
    INDEX 01 00:29:27
  TRACK 37 AUDIO
    TITLE "3:cjc030_08732"
    INDEX 01 00:30:08
  TRACK 38 AUDIO
    TITLE "0:"
    INDEX 01 00:31:10
  TRACK 39 AUDIO
    TITLE "4:cjc030_08733"
    INDEX 01 00:31:18
  TRACK 40 AUDIO
    TITLE "0:"
    INDEX 01 00:32:41
  TRACK 41 AUDIO
    TITLE "5:cjc030_08734"
    INDEX 01 00:32:48
  TRACK 42 AUDIO
    TITLE "0:"
    INDEX 01 00:33:48
  TRACK 43 AUDIO
    TITLE "6:cjc030_08735"
    INDEX 01 00:33:64
  TRACK 44 AUDIO
    TITLE "0:"
    INDEX 01 00:37:24
  TRACK 45 AUDIO
    TITLE "3:cjc030_08736"
    INDEX 01 00:38:00
  TRACK 46 AUDIO
    TITLE "0:"
    INDEX 01 00:39:00
  TRACK 47 AUDIO
    TITLE "4:cjc030_08737"
    INDEX 01 00:39:09
  TRACK 48 AUDIO
    TITLE "0:"
    INDEX 01 00:40:09
  TRACK 49 AUDIO
    TITLE "5:cjc030_08738"
    INDEX 01 00:40:19
  TRACK 50 AUDIO
    TITLE "0:"
    INDEX 01 00:41:16
  TRACK 51 AUDIO
    TITLE "3:cjc030_08739"
    INDEX 01 00:41:73
  TRACK 52 AUDIO
    TITLE "0:"
    INDEX 01 00:42:72
  TRACK 53 AUDIO
    TITLE "4:cjc030_08740"
    INDEX 01 00:43:07
  TRACK 54 AUDIO
    TITLE "0:"
    INDEX 01 00:44:09
  TRACK 55 AUDIO
    TITLE "5:cjc030_08741"
    INDEX 01 00:44:18
  TRACK 56 AUDIO
    TITLE "0:"
    INDEX 01 00:45:18
  TRACK 57 AUDIO
    TITLE "6:cjc030_08742"
    INDEX 01 00:45:33
  TRACK 58 AUDIO
    TITLE "0:"
    INDEX 01 00:49:12
  TRACK 59 AUDIO
    TITLE "3:cjc030_08743"
    INDEX 01 00:49:65
  TRACK 60 AUDIO
    TITLE "0:"
    INDEX 01 00:50:70
  TRACK 61 AUDIO
    TITLE "4:cjc030_08744"
    INDEX 01 00:51:03
  TRACK 62 AUDIO
    TITLE "0:"
    INDEX 01 00:52:45
  TRACK 63 AUDIO
    TITLE "5:cjc030_08745"
    INDEX 01 00:52:55
  TRACK 64 AUDIO
    TITLE "0:"
    INDEX 01 00:53:60
  TRACK 65 AUDIO
    TITLE "6:cjc030_08746"
    INDEX 01 00:54:01
  TRACK 66 AUDIO
    TITLE "0:"
    INDEX 01 00:58:71
  TRACK 67 AUDIO
    TITLE "3:cjc030_08747"
    INDEX 01 00:59:43
  TRACK 68 AUDIO
    TITLE "0:"
    INDEX 01 01:00:43
  TRACK 69 AUDIO
    TITLE "4:cjc030_08748"
    INDEX 01 01:00:51
  TRACK 70 AUDIO
    TITLE "0:"
    INDEX 01 01:01:40
  TRACK 71 AUDIO
    TITLE "5:cjc030_08749"
    INDEX 01 01:01:48
  TRACK 72 AUDIO
    TITLE "0:"
    INDEX 01 01:02:48
  TRACK 73 AUDIO
    TITLE "6:cjc030_08750"
    INDEX 01 01:02:63
  TRACK 74 AUDIO
    TITLE "0:"
    INDEX 01 01:06:36
